# xmcd CD database file
#
# Track frame offsets:
#	150
#	13170
#	31740
#	44962
#	59977
#	84167
#	97637
#	104522
#	116745
#	134065
#	150207
#	162637
#
# Disc length: 2310 seconds
#
# Revision: 0
# Processed by: cddbd v1.5.1PL0 Copyright (c) Steve Scherf et al.
# Submitted via: CDex 1.60beta1
#
DISCID=a009040c
DTITLE=Nikos Platyraxos - September
DYEAR=2001
DGENRE=New Age
TTITLE0=Oco EoeaYiaeao
TTITLE1=Oio ?eaiuaeio Anaoo?
TTITLE2=Oco Ani??o
TTITLE3=Aea Oci Ae??a
TTITLE4=Oco Ii??Eco
TTITLE5=Oco Iy?Oao
TTITLE6=Aiaiii?
TTITLE7=Oio Fellini
TTITLE8=Oa?oYianeio
TTITLE9=Oi Onaaiyae Oio IUiio
TTITLE10=Oco ?aioYeciio
TTITLE11=Oi Aiaao?nei Oui Onae?i
EXTD=YEAR: 2001
EXTT0=
EXTT1=
EXTT2=
EXTT3=
EXTT4=
EXTT5=
EXTT6=
EXTT7=
EXTT8=
EXTT9=
EXTT10=
EXTT11=
PLAYORDER=
